<svg width="29" height="18" viewBox="0 0 29 18" fill="none" xmlns="http://www.w3.org/2000/svg">
<path d="M14.2466 0C18.2194 7.85198e-05 21.665 2.17134 24.0294 4.19154C25.2281 5.21574 26.1908 6.23753 26.8544 7.00261C27.1868 7.38591 27.4466 7.70689 27.6245 7.93475C27.7134 8.04866 27.7822 8.13953 27.8297 8.20328C27.8535 8.23516 27.8722 8.26021 27.8853 8.27813C27.8918 8.28709 27.8969 8.29445 27.9007 8.29974C27.9025 8.30225 27.9042 8.30425 27.9053 8.30591L27.9069 8.30823L27.9077 8.309C27.9077 8.309 27.9076 8.3097 26.9439 8.99961C27.8929 9.62906 27.9316 9.65551 27.9316 9.65551L27.9308 9.65705L27.9293 9.65936C27.9281 9.66109 27.9263 9.663 27.9246 9.66554C27.921 9.67102 27.9162 9.6788 27.91 9.68791C27.8975 9.70626 27.88 9.73201 27.8575 9.76431C27.8125 9.829 27.7472 9.92095 27.6631 10.0359C27.4948 10.2657 27.249 10.5888 26.9315 10.9742C26.2978 11.7437 25.3705 12.7708 24.193 13.8C21.8608 15.8384 18.4165 17.9999 14.2466 18H14.245C10.4525 17.9956 6.91786 15.8237 4.44138 13.827C3.18034 12.8102 2.14196 11.7966 1.41887 11.0375C1.05673 10.6574 0.771576 10.3392 0.575473 10.1139C0.477377 10.0012 0.401067 9.91105 0.348611 9.84842C0.322527 9.81727 0.302683 9.79244 0.288424 9.77511C0.281272 9.76642 0.275552 9.75931 0.271447 9.75428C0.269499 9.75189 0.266046 9.74887 0.266046 9.74887L0.264503 9.74656L0.263731 9.74579C0.263731 9.74579 0.274213 9.73623 1.18507 8.99961C0.250968 8.41025 0.187556 8.36999 0.183481 8.36687V8.36533L0.185796 8.36301C0.186953 8.36119 0.187971 8.3587 0.189654 8.35607C0.19332 8.35033 0.19822 8.34233 0.204315 8.33292C0.216495 8.31411 0.234206 8.28852 0.256015 8.25576C0.299714 8.1901 0.362497 8.09703 0.444294 7.98105C0.607801 7.74921 0.846932 7.42356 1.15883 7.0358C1.78136 6.26184 2.70033 5.23086 3.88966 4.19771C6.25617 2.142 9.78815 0 14.2466 0ZM14.2466 2.37047C10.5744 2.37047 7.57519 4.13557 5.44374 5.98714C4.38413 6.90761 3.56216 7.83069 3.00613 8.52197C2.88896 8.66764 2.78394 8.80266 2.6913 8.92477C2.82004 9.06647 2.9681 9.22721 3.135 9.40241C3.80649 10.1073 4.76848 11.0454 5.9291 11.9812C8.29617 13.8897 11.2922 15.6251 14.2474 15.6288C17.5912 15.6284 20.4956 13.8838 22.6335 12.0152C23.6912 11.0907 24.529 10.163 25.102 9.46723C25.2358 9.3048 25.3542 9.15515 25.4577 9.02199C25.3437 8.88321 25.2118 8.72618 25.0634 8.55515C24.4562 7.85508 23.5768 6.92255 22.4892 5.99331C20.2807 4.10631 17.377 2.37055 14.2466 2.37047ZM1.18507 8.99961L0.263731 9.74579C-0.0553447 9.35124 -0.0879964 8.79681 0.182709 8.36764L1.18507 8.99961ZM27.9077 8.309C28.194 8.70893 28.2034 9.24562 27.9316 9.65551L26.9439 8.99961L27.9077 8.309Z" fill="#6F6150"/>
<path d="M16.245 9.00034C16.2449 7.79598 15.2687 6.81969 14.0643 6.81969C12.86 6.81979 11.8838 7.79604 11.8837 9.00034C11.8837 10.2047 12.8599 11.1809 14.0643 11.181C15.2687 11.181 16.245 10.2048 16.245 9.00034ZM18.6154 9.00034C18.6154 11.514 16.5779 13.5515 14.0643 13.5515C11.5508 13.5514 9.51318 11.5139 9.51318 9.00034C9.51328 6.48687 11.5508 4.44932 14.0643 4.44922C16.5779 4.44922 18.6153 6.48681 18.6154 9.00034Z" fill="#6F6150"/>
</svg>
