<svg width="159" height="169" viewBox="0 0 159 169" fill="none" xmlns="http://www.w3.org/2000/svg">
<g clip-path="url(#clip0_417_1870)">
<rect width="159" height="169" rx="15" fill="#CED6C5"/>
<ellipse cx="131.428" cy="140.527" rx="17.4624" ry="17.4511" fill="url(#paint0_linear_417_1870)"/>
<path d="M140.619 140.527L125.619 131.867V149.187L140.619 140.527ZM128.671 139.027C127.842 139.027 127.171 139.699 127.171 140.527C127.171 141.356 127.842 142.027 128.671 142.027V140.527V139.027Z" fill="white"/>
<g opacity="0.33">
<path d="M35.8409 183.928C35.8711 182.544 35.75 181.19 35.5684 179.866L35.9014 179.866C49.223 180.107 60.2134 169.578 60.4556 156.341C60.6978 143.075 50.0708 132.154 36.7491 131.944C36.84 127.281 35.5684 122.919 33.3582 119.189C29.2103 112.3 21.7018 107.667 13.073 107.516C5.23139 107.366 -1.79275 110.946 -6.30393 116.631C-9.45268 120.602 -11.3904 125.596 -11.4812 131.071C-11.5115 131.733 -11.4812 132.395 -11.4207 133.057C-11.9051 133.027 -12.4198 132.997 -12.9042 132.967C-26.2258 132.756 -37.2464 143.285 -37.4584 156.522C-37.7006 169.788 -27.1039 180.709 -13.7822 180.949C-13.2978 180.949 -12.7831 180.949 -12.2987 180.919C-12.3592 181.611 -12.4198 182.363 -12.4198 183.085C-12.662 196.322 -2.03496 207.242 11.2867 207.483C24.6083 207.723 35.5986 197.164 35.8409 183.928ZM7.59295 164.253C3.26342 161.786 1.74959 156.311 4.20198 152.009C6.68465 147.707 12.195 146.203 16.5548 148.64C20.8843 151.107 22.3981 156.582 19.9155 160.884C17.4328 165.216 11.9225 166.72 7.59295 164.253Z" fill="#D9CCBE"/>
<path d="M64.9952 156.424C64.7355 170.612 54.0819 182.178 40.3778 184.098C40.0432 199.778 27.0113 212.281 11.2042 211.995C-3.86016 211.723 -16.0223 199.952 -16.9049 185.244C-31.2751 183.474 -42.2593 171.177 -41.9953 156.45L-41.9983 156.45L-41.9953 156.447L-41.9983 156.441L-41.9953 156.441C-41.755 141.721 -30.2872 129.845 -15.876 128.567C-15.3082 123.014 -13.1362 117.958 -9.87098 113.84L-9.87098 113.837C-4.51661 107.089 3.83979 102.827 13.1616 103.005C23.4153 103.187 32.335 108.7 37.2556 116.872L37.2733 116.898C39.2089 120.165 40.5417 123.858 41.0579 127.809C54.8487 130.068 65.2567 142.098 64.9952 156.424ZM55.9152 156.259C56.1116 145.486 47.483 136.626 36.6761 136.455C35.4694 136.436 34.3211 135.94 33.4829 135.077C32.6446 134.215 32.1854 133.057 32.2085 131.858C32.2821 128.078 31.2538 124.533 29.444 121.478C26.067 115.89 19.9817 112.149 12.993 112.027L12.9842 112.027C6.62378 111.906 0.931311 114.803 -2.73651 119.425L-3.20662 120.039C-5.33768 122.954 -6.68221 126.475 -6.90839 130.318L-6.94091 131.147L-6.94387 131.276C-6.96189 131.67 -6.94524 132.116 -6.89656 132.648C-6.77656 133.959 -7.24111 135.258 -8.16498 136.203C-9.08883 137.147 -10.3815 137.642 -11.7041 137.56C-11.9413 137.545 -12.1869 137.531 -12.4374 137.516C-12.6461 137.503 -12.8583 137.491 -13.0672 137.478C-23.8597 137.355 -32.7471 145.899 -32.9183 156.594L-32.9183 156.603C-33.1146 167.354 -24.5535 176.197 -13.7827 176.436L-12.5823 176.415C-11.2629 176.333 -9.97254 176.827 -9.04903 177.767C-8.12561 178.707 -7.66034 180.001 -7.7747 181.31C-7.83553 182.005 -7.87811 182.58 -7.87818 183.084C-7.87818 183.111 -7.87769 183.139 -7.87818 183.166C-8.07466 193.904 0.548675 202.775 11.3698 202.97C22.1761 203.165 31.1041 194.597 31.3008 183.845L31.3008 183.83C31.3241 182.766 31.2304 181.664 31.0672 180.475C30.8904 179.185 31.2847 177.882 32.1464 176.9C33.0086 175.919 34.2562 175.355 35.5673 175.355L35.9842 175.355C46.7982 175.55 55.7186 167.004 55.9152 156.259ZM18.8148 144.725C25.3039 148.423 27.594 156.649 23.8559 163.128L23.8559 163.125C20.1366 169.604 11.8582 171.884 5.33523 168.169C-1.15445 164.471 -3.43851 156.254 0.249741 149.784L0.261568 149.764C3.98866 143.306 12.2561 141.06 18.7822 144.708L18.8148 144.725ZM15.9763 158.639C17.1982 156.521 16.4686 153.807 14.3147 152.566C12.1276 151.353 9.3891 152.111 8.15 154.244C6.94084 156.376 7.68679 159.105 9.85305 160.34C11.9859 161.554 14.7226 160.828 15.9704 158.65L15.9763 158.639Z" fill="#7C6C5A"/>
<path d="M18.8129 144.727C25.2986 148.422 27.589 156.638 23.86 163.115C20.1427 169.601 11.8594 171.886 5.33341 168.168C-1.15593 164.47 -3.43717 156.256 0.250869 149.786L0.262696 149.765C3.98941 143.308 12.2542 141.06 18.7804 144.706L18.8129 144.724L18.8129 144.727ZM15.9745 158.641C17.1945 156.526 16.4718 153.818 14.3276 152.574L13.9107 152.365C11.801 151.449 9.3152 152.24 8.15113 154.243C6.94111 156.375 7.68515 159.104 9.85122 160.339C11.9839 161.554 14.7203 160.829 15.9686 158.652L15.9745 158.641Z" fill="#7C6C5A"/>
<path d="M-8.42329 157.695C-8.42329 169.99 0.72648 179.956 12.0133 179.956C23.3001 179.956 32.4499 169.99 32.4499 157.695C32.4499 145.4 23.3001 135.433 12.0133 135.433C0.726482 135.433 -8.42329 145.4 -8.42329 157.695Z" fill="#D9CCBE"/>
<path d="M12.0133 175.443C20.4077 175.443 27.9078 167.897 27.9084 157.696C27.9084 147.494 20.408 139.946 12.0133 139.946C3.61858 139.946 -3.88185 147.494 -3.88185 157.696C-3.88127 167.897 3.6189 175.443 12.0133 175.443ZM12.0133 184.468C-2.16528 184.468 -12.9642 172.083 -12.9648 157.696C-12.9648 143.309 -2.16566 130.921 12.0133 130.921C26.1922 130.921 36.9913 143.309 36.9913 157.696C36.9907 172.083 26.1918 184.468 12.0133 184.468Z" fill="#D9CCBE"/>
<path d="M15.9426 146.031C21.7081 149.317 23.737 156.617 20.4249 162.368L20.4279 162.371C17.1222 168.139 9.76179 170.164 3.96801 166.863C-1.80161 163.576 -3.82902 156.273 -0.552753 150.526L-0.543883 150.511C2.76856 144.773 10.1151 142.775 15.9189 146.019L15.9426 146.031ZM15.1709 159.386C16.811 156.543 15.8235 152.912 12.9504 151.26L12.3975 150.987C9.58578 149.765 6.26044 150.82 4.71014 153.505C3.09195 156.359 4.09578 159.999 6.98087 161.643C9.84593 163.275 13.5054 162.291 15.165 159.395L15.1709 159.386Z" fill="#3E4F45"/>
</g>
</g>
<defs>
<linearGradient id="paint0_linear_417_1870" x1="131.218" y1="139.086" x2="131.218" y2="123.076" gradientUnits="userSpaceOnUse">
<stop stop-color="#3E4F45"/>
<stop offset="1" stop-color="#BED399"/>
</linearGradient>
<clipPath id="clip0_417_1870">
<rect width="159" height="169" rx="15" fill="white"/>
</clipPath>
</defs>
</svg>
