<svg width="24" height="26" viewBox="0 0 24 26" fill="none" xmlns="http://www.w3.org/2000/svg">
<rect x="1.5" y="1.5" width="21" height="23" rx="7.5" fill="#3E4F45" stroke="#3E4F45" stroke-width="3"/>
<path d="M18 9C18 9.55228 17.418 10 16.7 10L6.3 10C5.58203 10 5 9.55228 5 9C5 8.44772 5.58203 8 6.3 8L16.7 8C17.418 8 18 8.44772 18 9Z" fill="white"/>
<path d="M16 13C16 13.5523 15.5075 14 14.9 14L6.1 14C5.49249 14 5 13.5523 5 13C5 12.4477 5.49249 12 6.1 12L14.9 12C15.5075 12 16 12.4477 16 13Z" fill="white"/>
<path d="M14 17C14 17.5523 13.5971 18 13.1 18H5.9C5.40294 18 5 17.5523 5 17C5 16.4477 5.40294 16 5.9 16H13.1C13.5971 16 14 16.4477 14 17Z" fill="white"/>
</svg>
